<?xml version="1.0" encoding="iso-8859-1"?>
<!-- Generator: Adobe Illustrator 19.0.0, SVG Export Plug-In . SVG Version: 6.00 Build 0)  -->
<svg version="1.1" id="Capa_1" xmlns="http://www.w3.org/2000/svg" xmlns:xlink="http://www.w3.org/1999/xlink" x="0px" y="0px"
	 viewBox="0 0 60 60" style="enable-background:new 0 0 60 60;" xml:space="preserve">
<rect x="2" y="11" style="fill:#24AE5F;" width="56" height="38"/>
<rect x="9" y="11" style="fill:#4FBA6F;" width="8" height="38"/>
<rect x="41" y="11" style="fill:#4FBA6F;" width="8" height="38"/>
<rect x="26" y="11" style="fill:#4FBA6F;" width="8" height="38"/>
<g>
	<path style="fill:#A4E869;" d="M15,23.702V18H2v2h11v20H2v2h13v-5.702c2.413-1.151,4-3.587,4-6.298S17.413,24.853,15,23.702z
		 M15,33.99v-7.98c1.234,0.928,2,2.396,2,3.99S16.234,33.062,15,33.99z"/>
	<path style="fill:#A4E869;" d="M45,18v5.702c-2.413,1.151-4,3.588-4,6.298s1.587,5.147,4,6.298V42h13v-2H47V20h11v-2H45z M43,30
		c0-1.594,0.766-3.062,2-3.99v7.98C43.766,33.062,43,31.594,43,30z"/>
	<path style="fill:#A4E869;" d="M31,24.09V11h-2v13.09c-2.833,0.478-5,2.942-5,5.91s2.167,5.431,5,5.91V49h2V35.91
		c2.833-0.478,5-2.942,5-5.91S33.833,24.569,31,24.09z M26,30c0-1.858,1.28-3.411,3-3.858v7.716C27.28,33.411,26,31.858,26,30z
		 M31,33.858v-7.716c1.72,0.447,3,2,3,3.858S32.72,33.411,31,33.858z"/>
	<polygon style="fill:#A4E869;" points="51,38 58,38 58,36 53,36 53,24 58,24 58,22 51,22 	"/>
	<polygon style="fill:#A4E869;" points="9,22 2,22 2,24 7,24 7,36 2,36 2,38 9,38 	"/>
</g>
<path style="fill:#8697CB;" d="M58,59h-1c-0.552,0-1-0.448-1-1s0.448-1,1-1h1c0.552,0,1,0.448,1,1S58.552,59,58,59z M54,59h-1
	c-0.552,0-1-0.448-1-1s0.448-1,1-1h1c0.552,0,1,0.448,1,1S54.552,59,54,59z M50,59h-1c-0.552,0-1-0.448-1-1s0.448-1,1-1h1
	c0.552,0,1,0.448,1,1S50.552,59,50,59z M46,59h-1c-0.552,0-1-0.448-1-1s0.448-1,1-1h1c0.552,0,1,0.448,1,1S46.552,59,46,59z M42,59
	h-1c-0.552,0-1-0.448-1-1s0.448-1,1-1h1c0.552,0,1,0.448,1,1S42.552,59,42,59z M38,59h-1c-0.552,0-1-0.448-1-1s0.448-1,1-1h1
	c0.552,0,1,0.448,1,1S38.552,59,38,59z M34,59h-1c-0.552,0-1-0.448-1-1s0.448-1,1-1h1c0.552,0,1,0.448,1,1S34.552,59,34,59z M30,59
	h-1c-0.552,0-1-0.448-1-1s0.448-1,1-1h1c0.552,0,1,0.448,1,1S30.552,59,30,59z M26,59h-1c-0.552,0-1-0.448-1-1s0.448-1,1-1h1
	c0.552,0,1,0.448,1,1S26.552,59,26,59z M22,59h-1c-0.552,0-1-0.448-1-1s0.448-1,1-1h1c0.552,0,1,0.448,1,1S22.552,59,22,59z M18,59
	h-1c-0.552,0-1-0.448-1-1s0.448-1,1-1h1c0.552,0,1,0.448,1,1S18.552,59,18,59z M14,59h-1c-0.552,0-1-0.448-1-1s0.448-1,1-1h1
	c0.552,0,1,0.448,1,1S14.552,59,14,59z M10,59H9c-0.552,0-1-0.448-1-1s0.448-1,1-1h1c0.552,0,1,0.448,1,1S10.552,59,10,59z M6,59H5
	c-0.552,0-1-0.448-1-1s0.448-1,1-1h1c0.552,0,1,0.448,1,1S6.552,59,6,59z M2,59H1c-0.552,0-1-0.448-1-1s0.448-1,1-1h1
	c0.552,0,1,0.448,1,1S2.552,59,2,59z"/>
<path style="fill:#8697CB;" d="M54,56h-1c-0.552,0-1-0.448-1-1s0.448-1,1-1h1c0.552,0,1,0.448,1,1S54.552,56,54,56z M50,56h-1
	c-0.552,0-1-0.448-1-1s0.448-1,1-1h1c0.552,0,1,0.448,1,1S50.552,56,50,56z M46,56h-1c-0.552,0-1-0.448-1-1s0.448-1,1-1h1
	c0.552,0,1,0.448,1,1S46.552,56,46,56z M42,56h-1c-0.552,0-1-0.448-1-1s0.448-1,1-1h1c0.552,0,1,0.448,1,1S42.552,56,42,56z M38,56
	h-1c-0.552,0-1-0.448-1-1s0.448-1,1-1h1c0.552,0,1,0.448,1,1S38.552,56,38,56z M34,56h-1c-0.552,0-1-0.448-1-1s0.448-1,1-1h1
	c0.552,0,1,0.448,1,1S34.552,56,34,56z M30,56h-1c-0.552,0-1-0.448-1-1s0.448-1,1-1h1c0.552,0,1,0.448,1,1S30.552,56,30,56z M26,56
	h-1c-0.552,0-1-0.448-1-1s0.448-1,1-1h1c0.552,0,1,0.448,1,1S26.552,56,26,56z M22,56h-1c-0.552,0-1-0.448-1-1s0.448-1,1-1h1
	c0.552,0,1,0.448,1,1S22.552,56,22,56z M18,56h-1c-0.552,0-1-0.448-1-1s0.448-1,1-1h1c0.552,0,1,0.448,1,1S18.552,56,18,56z M14,56
	h-1c-0.552,0-1-0.448-1-1s0.448-1,1-1h1c0.552,0,1,0.448,1,1S14.552,56,14,56z M10,56H9c-0.552,0-1-0.448-1-1s0.448-1,1-1h1
	c0.552,0,1,0.448,1,1S10.552,56,10,56z M6,56H5c-0.552,0-1-0.448-1-1s0.448-1,1-1h1c0.552,0,1,0.448,1,1S6.552,56,6,56z"/>
<path style="fill:#8697CB;" d="M50,53h-1c-0.552,0-1-0.448-1-1s0.448-1,1-1h1c0.552,0,1,0.448,1,1S50.552,53,50,53z M46,53h-1
	c-0.552,0-1-0.448-1-1s0.448-1,1-1h1c0.552,0,1,0.448,1,1S46.552,53,46,53z M42,53h-1c-0.552,0-1-0.448-1-1s0.448-1,1-1h1
	c0.552,0,1,0.448,1,1S42.552,53,42,53z M38,53h-1c-0.552,0-1-0.448-1-1s0.448-1,1-1h1c0.552,0,1,0.448,1,1S38.552,53,38,53z M34,53
	h-1c-0.552,0-1-0.448-1-1s0.448-1,1-1h1c0.552,0,1,0.448,1,1S34.552,53,34,53z M30,53h-1c-0.552,0-1-0.448-1-1s0.448-1,1-1h1
	c0.552,0,1,0.448,1,1S30.552,53,30,53z M26,53h-1c-0.552,0-1-0.448-1-1s0.448-1,1-1h1c0.552,0,1,0.448,1,1S26.552,53,26,53z M22,53
	h-1c-0.552,0-1-0.448-1-1s0.448-1,1-1h1c0.552,0,1,0.448,1,1S22.552,53,22,53z M18,53h-1c-0.552,0-1-0.448-1-1s0.448-1,1-1h1
	c0.552,0,1,0.448,1,1S18.552,53,18,53z M14,53h-1c-0.552,0-1-0.448-1-1s0.448-1,1-1h1c0.552,0,1,0.448,1,1S14.552,53,14,53z M10,53
	H9c-0.552,0-1-0.448-1-1s0.448-1,1-1h1c0.552,0,1,0.448,1,1S10.552,53,10,53z"/>
<path style="fill:#E64C3C;" d="M59,3h-1c-0.552,0-1-0.448-1-1s0.448-1,1-1h1c0.552,0,1,0.448,1,1S59.552,3,59,3z M55,3h-1
	c-0.552,0-1-0.448-1-1s0.448-1,1-1h1c0.552,0,1,0.448,1,1S55.552,3,55,3z M51,3h-1c-0.552,0-1-0.448-1-1s0.448-1,1-1h1
	c0.552,0,1,0.448,1,1S51.552,3,51,3z M47,3h-1c-0.552,0-1-0.448-1-1s0.448-1,1-1h1c0.552,0,1,0.448,1,1S47.552,3,47,3z M43,3h-1
	c-0.552,0-1-0.448-1-1s0.448-1,1-1h1c0.552,0,1,0.448,1,1S43.552,3,43,3z M39,3h-1c-0.552,0-1-0.448-1-1s0.448-1,1-1h1
	c0.552,0,1,0.448,1,1S39.552,3,39,3z M35,3h-1c-0.552,0-1-0.448-1-1s0.448-1,1-1h1c0.552,0,1,0.448,1,1S35.552,3,35,3z M31,3h-1
	c-0.552,0-1-0.448-1-1s0.448-1,1-1h1c0.552,0,1,0.448,1,1S31.552,3,31,3z M27,3h-1c-0.552,0-1-0.448-1-1s0.448-1,1-1h1
	c0.552,0,1,0.448,1,1S27.552,3,27,3z M23,3h-1c-0.552,0-1-0.448-1-1s0.448-1,1-1h1c0.552,0,1,0.448,1,1S23.552,3,23,3z M19,3h-1
	c-0.552,0-1-0.448-1-1s0.448-1,1-1h1c0.552,0,1,0.448,1,1S19.552,3,19,3z M15,3h-1c-0.552,0-1-0.448-1-1s0.448-1,1-1h1
	c0.552,0,1,0.448,1,1S15.552,3,15,3z M11,3h-1C9.448,3,9,2.552,9,2s0.448-1,1-1h1c0.552,0,1,0.448,1,1S11.552,3,11,3z M7,3H6
	C5.448,3,5,2.552,5,2s0.448-1,1-1h1c0.552,0,1,0.448,1,1S7.552,3,7,3z M3,3H2C1.448,3,1,2.552,1,2s0.448-1,1-1h1
	c0.552,0,1,0.448,1,1S3.552,3,3,3z"/>
<path style="fill:#E64C3C;" d="M55,6h-1c-0.552,0-1-0.448-1-1s0.448-1,1-1h1c0.552,0,1,0.448,1,1S55.552,6,55,6z M51,6h-1
	c-0.552,0-1-0.448-1-1s0.448-1,1-1h1c0.552,0,1,0.448,1,1S51.552,6,51,6z M47,6h-1c-0.552,0-1-0.448-1-1s0.448-1,1-1h1
	c0.552,0,1,0.448,1,1S47.552,6,47,6z M43,6h-1c-0.552,0-1-0.448-1-1s0.448-1,1-1h1c0.552,0,1,0.448,1,1S43.552,6,43,6z M39,6h-1
	c-0.552,0-1-0.448-1-1s0.448-1,1-1h1c0.552,0,1,0.448,1,1S39.552,6,39,6z M35,6h-1c-0.552,0-1-0.448-1-1s0.448-1,1-1h1
	c0.552,0,1,0.448,1,1S35.552,6,35,6z M31,6h-1c-0.552,0-1-0.448-1-1s0.448-1,1-1h1c0.552,0,1,0.448,1,1S31.552,6,31,6z M27,6h-1
	c-0.552,0-1-0.448-1-1s0.448-1,1-1h1c0.552,0,1,0.448,1,1S27.552,6,27,6z M23,6h-1c-0.552,0-1-0.448-1-1s0.448-1,1-1h1
	c0.552,0,1,0.448,1,1S23.552,6,23,6z M19,6h-1c-0.552,0-1-0.448-1-1s0.448-1,1-1h1c0.552,0,1,0.448,1,1S19.552,6,19,6z M15,6h-1
	c-0.552,0-1-0.448-1-1s0.448-1,1-1h1c0.552,0,1,0.448,1,1S15.552,6,15,6z M11,6h-1C9.448,6,9,5.552,9,5s0.448-1,1-1h1
	c0.552,0,1,0.448,1,1S11.552,6,11,6z M7,6H6C5.448,6,5,5.552,5,5s0.448-1,1-1h1c0.552,0,1,0.448,1,1S7.552,6,7,6z"/>
<path style="fill:#E64C3C;" d="M51,9h-1c-0.552,0-1-0.448-1-1s0.448-1,1-1h1c0.552,0,1,0.448,1,1S51.552,9,51,9z M47,9h-1
	c-0.552,0-1-0.448-1-1s0.448-1,1-1h1c0.552,0,1,0.448,1,1S47.552,9,47,9z M43,9h-1c-0.552,0-1-0.448-1-1s0.448-1,1-1h1
	c0.552,0,1,0.448,1,1S43.552,9,43,9z M39,9h-1c-0.552,0-1-0.448-1-1s0.448-1,1-1h1c0.552,0,1,0.448,1,1S39.552,9,39,9z M35,9h-1
	c-0.552,0-1-0.448-1-1s0.448-1,1-1h1c0.552,0,1,0.448,1,1S35.552,9,35,9z M31,9h-1c-0.552,0-1-0.448-1-1s0.448-1,1-1h1
	c0.552,0,1,0.448,1,1S31.552,9,31,9z M27,9h-1c-0.552,0-1-0.448-1-1s0.448-1,1-1h1c0.552,0,1,0.448,1,1S27.552,9,27,9z M23,9h-1
	c-0.552,0-1-0.448-1-1s0.448-1,1-1h1c0.552,0,1,0.448,1,1S23.552,9,23,9z M19,9h-1c-0.552,0-1-0.448-1-1s0.448-1,1-1h1
	c0.552,0,1,0.448,1,1S19.552,9,19,9z M15,9h-1c-0.552,0-1-0.448-1-1s0.448-1,1-1h1c0.552,0,1,0.448,1,1S15.552,9,15,9z M11,9h-1
	C9.448,9,9,8.552,9,8s0.448-1,1-1h1c0.552,0,1,0.448,1,1S11.552,9,11,9z"/>
<path style="fill:#4FBA6F;" d="M2,15L2,15l0-4h4v0C6,13.209,4.209,15,2,15z"/>
<path style="fill:#4FBA6F;" d="M58,15L58,15c-2.209,0-4-1.791-4-4v0h4V15z"/>
<path style="fill:#4FBA6F;" d="M6,49H2v-4h0C4.209,45,6,46.791,6,49L6,49z"/>
<path style="fill:#4FBA6F;" d="M58,49h-4v0c0-2.209,1.791-4,4-4h0V49z"/>
<g>
</g>
<g>
</g>
<g>
</g>
<g>
</g>
<g>
</g>
<g>
</g>
<g>
</g>
<g>
</g>
<g>
</g>
<g>
</g>
<g>
</g>
<g>
</g>
<g>
</g>
<g>
</g>
<g>
</g>
</svg>
