<?xml version="1.0" encoding="utf-8"?>
<!-- Generator: Adobe Illustrator 19.0.0, SVG Export Plug-In . SVG Version: 6.00 Build 0)  -->
<svg version="1.1" id="svg" xmlns="http://www.w3.org/2000/svg" xmlns:xlink="http://www.w3.org/1999/xlink" x="0px" y="0px"
	 viewBox="987.9 -227.9 1015.8 1015.8" style="enable-background:new 987.9 -227.9 1015.8 1015.8;" xml:space="preserve">
<style type="text/css">
	.st0{fill:#66BE5B;}
	.st1{opacity:0.2;enable-background:new    ;}
	.st2{fill:#F3D2BA;}
	.st3{fill:#424143;}
	.st4{fill:#4C8ACC;}
	.st5{fill:#84BFEF;}
	.st6{opacity:4.000000e-002;enable-background:new    ;}
	.st7{fill:#EFCE4A;}
	.st8{fill:#F7E6A1;}
	.st9{fill:#556080;}
</style>
<g>
	<path class="st0" d="M2003.6,280.1c0,242.3-169.7,445-396.8,495.6c-35.8,8-72.8,12.2-111.2,12.2c-24.6,0-48.8-1.7-72.4-5.1
		c-246.1-35.2-435.4-246.7-435.4-502.7c0-280.4,227.4-508,507.8-508c261.5,0,476.6,197.5,504.8,451.6c0.4,3.6,0.8,7.2,1.1,10.7
		C2003,249.4,2003.6,264.7,2003.6,280.1z"/>
	<path class="st1" d="M2003.6,280.1c0,242.3-169.7,445-396.8,495.6c-35.8,8-72.8,12.2-111.2,12.2c-24.6,0-48.8-1.7-72.4-5.1
		l-218.9-212.6l581.9-537.9l215.4,202.3C2003,249.4,2003.6,264.7,2003.6,280.1z"/>
	<g>
		<g>
			<g>
				<g>
					<polygon class="st2" points="1780.9,449.6 1780.9,572.5 1739.9,572.5 1662,616.5 1495.6,710.4 1495.6,710.4 1250.6,570 
						1204.5,570 1204.5,438.6 1235.4,296.1 1507.9,188.1 1752.3,238.6 1780.5,446 					"/>
					<polygon class="st3" points="1786.4,32.1 1786.4,446 1734.6,446 1734.6,272.1 1494.6,244.3 1243.4,335.5 1241.1,437.8 
						1192.5,446.4 1192.5,219.1 					"/>
				</g>
				<g>
					<path class="st3" d="M1271.2,380.7h195.2c0,0,11.6,160.6-97.5,160.6C1259.9,541.4,1271.2,380.7,1271.2,380.7z"/>
					<path class="st3" d="M1524.7,380.7h195.2c0,0,11.6,160.6-97.5,160.6C1513.3,541.4,1524.7,380.7,1524.7,380.7z"/>
					<polygon class="st3" points="1442,428.1 1494.8,410.6 1547.9,428.1 1547.9,380.7 1442,380.7 					"/>
					<path class="st4" d="M1448.5,398.8c0,2.5-0.2,5.5-0.2,8.4c-1.3,27.4-7.4,70.7-30.9,96c-12.4,13.3-28.2,19.8-48.4,19.8
						c-11.4,0-21.5-2.1-30.1-6.3c-6.7-3.4-12.8-7.8-18.3-13.7c-4.2-4.4-7.8-9.7-10.9-15.2c-15.6-27.2-19.8-64.8-20.2-89.3h159.2
						V398.8z"/>
					<path class="st4" d="M1702,398.8c0,1.7,0,3.4-0.2,5.3c-1.1,27.2-6.5,73.1-31.2,99.4c-12.4,13.3-28.2,19.8-48.4,19.8
						c-12.2,0-22.9-2.3-32.2-7.4c-5.9-3.2-11.4-7.4-16.2-12.4c-4.8-5.1-8.8-10.9-12.2-17.3c-15.4-28.2-18.5-65.9-18.9-87.2H1702
						V398.8z"/>
				</g>
				<path class="st3" d="M1486.5,637.4c-34.8,0-60.6-5.6-62.9-6.1l2.3-10.3c1.3,0.3,125.7,27,200-39.6l7,7.8
					C1589.1,628.5,1530.6,637.4,1486.5,637.4z"/>
			</g>
		</g>
		<path class="st5" d="M1695.9,398.8c0,1.7,0,3.4-0.2,5.3l-111.8,111.8c-5.9-3.2-11.4-7.4-16.2-12.4c-4.8-5.1-8.8-10.9-12.2-17.3
			l87.2-87.2h53.3V398.8z"/>
		<path class="st5" d="M1442.4,398.8c0,2.5-0.2,5.5-0.2,8.4l-109.5,109.5c-6.7-3.4-12.8-7.8-18.3-13.7c-4.2-4.4-7.8-9.7-10.9-15.2
			l89.3-89.3h49.7V398.8z"/>
	</g>
	<polygon class="st6" points="1495.9,123.5 1495.6,710.4 1739.9,572.5 1780.9,572.5 1780.5,446 1786.4,446 1786.4,32.1 	"/>
	<g>
		<g>
			<path class="st7" d="M1495.6-144.1c-46.3,0-83.8,37.5-83.8,83.8c0,37.1,24.2,68.4,57.5,79.6v51.4h10.5v15.8h31.4V70.6h10.5V19.3
				c33.5-10.9,57.5-42.3,57.5-79.6C1579.4-106.6,1542-144.1,1495.6-144.1z"/>
			<g>
				<path class="st7" d="M1495.6-191.3c-2.9,0-5.3,2.3-5.3,5.3v20.8c0,2.9,2.3,5.3,5.3,5.3c2.9,0,5.3-2.3,5.3-5.3V-186
					C1500.9-188.9,1498.6-191.3,1495.6-191.3z"/>
				<path class="st7" d="M1621.3-65.8h-20.8c-2.9,0-5.3,2.3-5.3,5.3c0,2.9,2.3,5.3,5.3,5.3h20.8c2.9,0,5.3-2.3,5.3-5.3
					C1626.6-63.5,1624.3-65.8,1621.3-65.8z"/>
				<path class="st7" d="M1391-65.8h-20.8c-2.9,0-5.3,2.3-5.3,5.3c0,2.9,2.3,5.3,5.3,5.3h20.8c2.9,0,5.3-2.3,5.3-5.3
					C1396.3-63.5,1394-65.8,1391-65.8z"/>
				<path class="st7" d="M1580.9-152.9l-14.7,14.7c-2.1,2.1-2.1,5.3,0,7.4c1.1,1.1,2.3,1.5,3.8,1.5c1.5,0,2.7-0.4,3.8-1.5l14.7-14.7
					c2.1-2.1,2.1-5.3,0-7.4C1586.4-155,1582.8-155,1580.9-152.9z"/>
				<path class="st7" d="M1418,9.8l-14.7,14.7c-2.1,2.1-2.1,5.3,0,7.4c1.1,1.1,2.3,1.5,3.8,1.5s2.7-0.4,3.8-1.5l14.7-14.7
					c2.1-2.1,2.1-5.3,0-7.4S1420.1,7.9,1418,9.8z"/>
				<path class="st7" d="M1573.3,9.8c-2.1-2.1-5.3-2.1-7.4,0s-2.1,5.3,0,7.4l14.7,14.7c1.1,1.1,2.3,1.5,3.8,1.5
					c1.3,0,2.7-0.4,3.8-1.5c2.1-2.1,2.1-5.3,0-7.4L1573.3,9.8z"/>
				<path class="st7" d="M1410.6-152.9c-2.1-2.1-5.3-2.1-7.4,0c-2.1,2.1-2.1,5.3,0,7.4l14.7,14.7c1.1,1.1,2.3,1.5,3.8,1.5
					c1.3,0,2.7-0.4,3.8-1.5c2.1-2.1,2.1-5.3,0-7.4L1410.6-152.9z"/>
			</g>
		</g>
		<path class="st8" d="M1438.2-55.3c-2.9,0-5.3-2.3-5.3-5.3c0-34.5,28.2-62.7,62.7-62.7c2.9,0,5.3,2.3,5.3,5.3
			c0,2.9-2.3,5.3-5.3,5.3c-28.8,0-52.4,23.4-52.4,52.4C1443.4-57.6,1441.1-55.3,1438.2-55.3z"/>
		<polygon class="st9" points="1469.5,33.8 1469.5,70.4 1480.1,70.4 1480.1,86 1511.4,86 1511.4,70.4 1522,70.4 1522,33.8 		"/>
	</g>
</g>
</svg>
