<?xml version="1.0" encoding="utf-8"?>
<!-- Generator: Adobe Illustrator 19.0.0, SVG Export Plug-In . SVG Version: 6.00 Build 0)  -->
<svg version="1.1" id="svg" xmlns="http://www.w3.org/2000/svg" xmlns:xlink="http://www.w3.org/1999/xlink" x="0px" y="0px"
	 viewBox="1255.7 -150 886.1 899.2" style="enable-background:new 1255.7 -150 886.1 899.2;" xml:space="preserve">
<style type="text/css">
	.st0{fill:#66BE5B;}
	.st1{opacity:0.2;enable-background:new    ;}
	.st2{fill:#425F8E;}
	.st3{fill:#F3D2BA;}
	.st4{fill:#424143;}
	.st5{fill:#4C8ACC;}
	.st6{fill:#84BFEF;}
	.st7{fill:#9B2A35;}
	.st8{opacity:4.000000e-002;enable-background:new    ;}
	.st9{fill:#EFCE4A;}
	.st10{fill:#F7E6A1;}
	.st11{fill:#556080;}
</style>
<g>
	<path class="st0" d="M2141.8,293.2c0,211.4-148.1,388.3-346.1,432.5c-31.1,6.9-63.7,10.7-96.8,10.7
		c-244.7,0-443.2-198.5-443.2-443.2S1454.2-150,1698.9-150c228,0,415.9,172.3,440.3,393.9C2140.9,260.1,2141.8,276.5,2141.8,293.2z"
		/>
	<path class="st1" d="M2141.8,293.2c0,211.4-148.1,388.3-346.1,432.5l-310.2-301.5l426.1-393.9l227.6,213.8
		C2140.9,260.1,2141.8,276.5,2141.8,293.2z"/>
	<g>
		<g>
			<polygon class="st2" points="1991.3,701 1914.4,621.8 1914,621.3 1908.5,619.1 1841.8,599.3 1794.6,560.9 1794.6,482.1 
				1698.6,537.2 1602.5,482.1 1602.5,560.9 1555.4,599.3 1488.8,619.1 1483.1,621.3 1482.8,621.8 1405.8,701 1405.6,749.2 
				1698.6,749.2 1698.6,749.2 1991.7,749.2 			"/>
			<g>
				<g>
					<polygon class="st3" points="1907.6,335.8 1907.6,425.9 1877.4,425.9 1820.3,458.1 1698.6,527 1698.6,527 1519,423.9 
						1485.5,423.9 1485.5,327.8 1507.9,223.4 1707.5,144.4 1886.5,181.3 1907.1,333.1 					"/>
					<polygon class="st4" points="1911.6,30.1 1911.6,333.1 1873.6,333.1 1873.6,205.9 1697.8,185.5 1513.9,252.3 1512.1,327.4 
						1476.6,333.6 1476.6,167.1 					"/>
				</g>
				<g>
					<path class="st4" d="M1534.1,285.4h143c0,0,8.4,117.7-71.5,117.7C1525.7,403.1,1534.1,285.4,1534.1,285.4z"/>
					<path class="st4" d="M1720,285.4h143c0,0,8.4,117.7-71.5,117.7C1711.5,403.1,1720,285.4,1720,285.4z"/>
					<polygon class="st4" points="1659.3,320.2 1698,307.4 1736.8,320.2 1736.8,285.4 1659.3,285.4 					"/>
					<path class="st5" d="M1664,298.7c0,2-0.2,4-0.2,6.2c-0.9,20.2-5.3,51.7-22.6,70.4c-9.1,9.8-20.6,14.4-35.5,14.4
						c-8.4,0-15.8-1.6-22-4.7c-5.1-2.4-9.5-5.8-13.3-10c-3.1-3.3-5.8-7.1-8-11.1c-11.3-20-14.4-47.5-14.9-65.3H1664z"/>
					<path class="st5" d="M1849.6,298.7c0,1.1,0,2.4-0.2,3.8c-0.7,20-4.9,53.5-22.9,72.8c-9.1,9.8-20.6,14.4-35.5,14.4
						c-9.1,0-16.9-1.8-23.5-5.3c-4.4-2.2-8.2-5.3-11.8-9.1c-3.6-3.8-6.4-8-8.9-12.7c-11.3-20.6-13.5-48.2-14-63.9H1849.6z"/>
				</g>
				<path class="st4" d="M1692.1,475.2c-25.8,0-44.9-4.1-46.6-4.5l2.4-10.8c0.9,0.2,91.2,19.6,145-28.5l7.4,8.3
					C1767.8,468.6,1724.6,475.2,1692.1,475.2z"/>
			</g>
			<polygon class="st6" points="1698.6,537.2 1653.1,511.2 1653.1,749 1698.6,749 1698.6,749 1744.2,749 1744.2,511.2 			"/>
			<g>
				<g>
					<g>
						<polygon class="st5" points="1596.1,733.9 1596.1,749.2 1482.8,749.2 1482.8,621.8 1483.1,621.3 1488.8,619.1 1555.4,599.3 
							1524.6,664.8 						"/>
					</g>
				</g>
				<g>
					<g>
						<polygon class="st5" points="1801.2,733.9 1801.2,749.2 1914.4,749.2 1914.4,621.8 1914,621.3 1908.5,619.1 1841.8,599.3 
							1872.7,664.8 						"/>
					</g>
				</g>
			</g>
			<g>
				<polygon class="st7" points="1698.6,584.9 1698.6,584.9 1698.6,584.9 1698.6,584.9 1698.6,584.9 1717.1,554.7 1698.6,537.2 
					1680.4,554.7 				"/>
				<polygon class="st7" points="1732.8,616.9 1708,578 1698.6,593.3 1689.5,578 1664.7,616.9 1668.4,627.1 1698.6,708.3 
					1729.1,627.1 				"/>
			</g>
		</g>
		<path class="st6" d="M1845.2,298.7c0,1.1,0,2.4-0.2,3.8l-81.9,81.9c-4.4-2.2-8.2-5.3-11.8-9.1c-3.6-3.8-6.4-8-8.9-12.7l63.9-63.9
			L1845.2,298.7L1845.2,298.7z"/>
		<path class="st6" d="M1659.6,298.7c0,2-0.2,4-0.2,6.2l-80.2,80.2c-5.1-2.4-9.5-5.8-13.3-10c-3.1-3.3-5.8-7.1-8-11.1l65.3-65.3
			L1659.6,298.7L1659.6,298.7z"/>
	</g>
	<polygon class="st8" points="1698.6,97.1 1698.6,527 1877.4,425.9 1907.6,425.9 1907.1,333.1 1911.6,333.1 1911.6,30.1 	"/>
	<g>
		<g>
			<path class="st9" d="M1698.6-98.9c-34,0-61.3,27.5-61.3,61.3c0,27.1,17.8,50.2,42.2,58.2V58h7.8v11.5h23.1V58h7.8V20.5
				c24.4-8,42.2-31.1,42.2-58.2C1759.9-71.6,1732.4-98.9,1698.6-98.9z"/>
			<g>
				<path class="st9" d="M1698.6-133.3c-2.2,0-3.8,1.8-3.8,3.8v15.3c0,2.2,1.8,3.8,3.8,3.8c2.2,0,3.8-1.8,3.8-3.8v-15.3
					C1702.4-131.8,1700.9-133.3,1698.6-133.3z"/>
				<path class="st9" d="M1790.6-41.4h-15.3c-2.2,0-3.8,1.8-3.8,3.8c0,2,1.8,3.8,3.8,3.8h15.3c2.2,0,3.8-1.8,3.8-3.8
					C1794.3-39.7,1792.8-41.4,1790.6-41.4z"/>
				<path class="st9" d="M1622-41.4h-15.3c-2.2,0-3.8,1.8-3.8,3.8c0,2,1.8,3.8,3.8,3.8h15.3c2.2,0,3.8-1.8,3.8-3.8
					C1625.8-39.7,1624-41.4,1622-41.4z"/>
				<path class="st9" d="M1761-105.4l-10.9,10.9c-1.6,1.6-1.6,4,0,5.3c0.7,0.7,1.8,1.1,2.7,1.1c0.9,0,2-0.4,2.7-1.1l10.9-10.9
					c1.6-1.6,1.6-4,0-5.3S1762.4-106.9,1761-105.4z"/>
				<path class="st9" d="M1641.8,13.9l-10.9,10.9c-1.6,1.6-1.6,4,0,5.3c0.7,0.7,1.8,1.1,2.7,1.1c0.9,0,2-0.4,2.7-1.1l10.9-10.9
					c1.6-1.6,1.6-4,0-5.3C1645.6,12.3,1643.1,12.3,1641.8,13.9z"/>
				<path class="st9" d="M1755.5,13.9c-1.6-1.6-4-1.6-5.3,0c-1.6,1.6-1.6,4,0,5.3l10.9,10.9c0.7,0.7,1.8,1.1,2.7,1.1
					c0.9,0,2-0.4,2.7-1.1c1.6-1.6,1.6-4,0-5.3L1755.5,13.9z"/>
				<path class="st9" d="M1636.3-105.4c-1.6-1.6-4-1.6-5.3,0s-1.6,4,0,5.3l10.9,10.9c0.7,0.7,1.8,1.1,2.7,1.1c0.9,0,2-0.4,2.7-1.1
					c1.6-1.6,1.6-4,0-5.3L1636.3-105.4z"/>
			</g>
		</g>
		<path class="st10" d="M1656.5-33.9c-2.2,0-3.8-1.8-3.8-3.8c0-25.3,20.6-46,46-46c2.2,0,3.8,1.8,3.8,3.8s-1.8,3.8-3.8,3.8
			c-21.1,0-38.4,17.1-38.4,38.4C1660.2-35.4,1658.7-33.9,1656.5-33.9z"/>
		<polygon class="st11" points="1679.5,31.4 1679.5,58 1687.1,58 1687.1,69.6 1710.2,69.6 1710.2,58 1717.7,58 1717.7,31.4 		"/>
	</g>
</g>
</svg>
